<?xml version="1.0" encoding="UTF-8" standalone="no"?>
<!-- Created with Inkscape (http://www.inkscape.org/) -->

<svg
   width="297mm"
   height="210mm"
   viewBox="0 0 297 210"
   version="1.1"
   id="svg5"
   inkscape:version="1.2.1 (9c6d41e410, 2022-07-14)"
   sodipodi:docname="n4n0さんのロゴ.svg"
   xml:space="preserve"
   xmlns:inkscape="http://www.inkscape.org/namespaces/inkscape"
   xmlns:sodipodi="http://sodipodi.sourceforge.net/DTD/sodipodi-0.dtd"
   xmlns="http://www.w3.org/2000/svg"
   xmlns:svg="http://www.w3.org/2000/svg"><sodipodi:namedview
     id="namedview7"
     pagecolor="#505050"
     bordercolor="#eeeeee"
     borderopacity="1"
     inkscape:showpageshadow="0"
     inkscape:pageopacity="0"
     inkscape:pagecheckerboard="0"
     inkscape:deskcolor="#505050"
     inkscape:document-units="mm"
     showgrid="false"
     inkscape:zoom="1.2938725"
     inkscape:cx="350.88466"
     inkscape:cy="300.64787"
     inkscape:window-width="3840"
     inkscape:window-height="2066"
     inkscape:window-x="-11"
     inkscape:window-y="-11"
     inkscape:window-maximized="1"
     inkscape:current-layer="layer1" /><defs
     id="defs2" /><g
     inkscape:label="Layer 1"
     inkscape:groupmode="layer"
     id="layer1"><path
       style="fill:none;stroke:#ff0000;stroke-width:2;stroke-linecap:round;stroke-linejoin:round;paint-order:markers fill stroke"
       d="m 18.428963,94.47753 0.379408,36.63858 c 0.03387,3.27087 -0.147819,5.86542 3.123126,5.84073 l 15.134931,-0.10224 -0.306735,-36.70147 c 10.26747,0.37676 19.385301,11.69078 19.751177,36.84722 l 17.736759,-0.0256 C 75.343879,107.90862 65.64142,82.014249 32.744855,81.790574 24.20752,81.854933 18.358315,87.655169 18.428963,94.47753 Z"
       id="path414"
       sodipodi:nodetypes="ssscccccs" /><path
       style="fill:none;stroke:#ff0000;stroke-width:2;stroke-linecap:round;stroke-linejoin:round;paint-order:markers fill stroke"
       d="m 213.1776,94.107385 -0.37941,36.638585 c -0.0339,3.27087 0.14782,5.86542 -3.12313,5.84073 l -15.13493,-0.10224 0.30674,-36.701475 c -10.26747,0.376765 -19.3853,11.690785 -19.75118,36.847225 l -17.73676,-0.0256 c -1.09625,-29.06613 8.60621,-54.960507 41.50278,-55.184182 8.53733,0.06436 14.38654,5.864595 14.31589,12.686957 z"
       id="path414-0"
       sodipodi:nodetypes="ssscccccs" /><path
       id="path1293"
       style="fill:none;stroke:#ff0000;stroke-width:2.12397;stroke-linecap:round;stroke-linejoin:round;paint-order:markers fill stroke"
       d="m 256.82143,109.34083 c 0,4.55761 -3.69467,8.25227 -8.25227,8.25227 -4.55761,0 -8.25227,-3.69466 -8.25227,-8.25227 0,-4.5576 3.69466,-8.25227 8.25227,-8.25227 4.5576,0 8.25227,3.69467 8.25227,8.25227 z m 20.31868,0.31201 c 0,15.83168 -12.83411,28.66579 -28.66579,28.66578 -15.83167,0 -28.66578,-12.83411 -28.66578,-28.66578 -4e-5,-15.8317 12.83408,-28.66585 28.66578,-28.66585 15.8317,-6e-6 28.66583,12.834146 28.66579,28.66585 z"
       sodipodi:nodetypes="ssssssssss" /><path
       id="path1413"
       style="fill:none;fill-opacity:0.5;stroke:#ff0000;stroke-width:2;stroke-linecap:round;stroke-linejoin:round;stroke-dasharray:none;paint-order:markers fill stroke"
       d="m 99.994963,118.37843 c 3.090737,-9.01921 10.820297,-14.15926 18.949207,-16.74936 -3.22584,5.67824 -7.77251,17.08838 -7.77251,17.08838 z m 24.954947,18.7171 16.91796,0.43376 c 9.18405,0.13839 13.19826,-15.15401 0.63074,-18.01236 l -12.14076,-0.2169 c 0,0 6.43849,-13.60382 12.31173,-23.145587 7.44363,-14.4816 -13.62772,-13.83012 -13.62772,-13.83012 -16.76201,0.27913 -27.30672,5.93598 -34.939838,13.17283 -7.63312,7.236877 -12.02236,16.334947 -13.35987,26.456707 0,0 -3.12089,14.30432 14.47799,14.49603 l 11.571368,0.23766 c -0.63261,5.53079 -0.96256,10.74062 -0.96256,10.74062 0.84057,9.72029 15.42977,12.24595 17.96876,0.79953 0,0 0.35692,-5.45678 1.1522,-11.13217 z"
       sodipodi:nodetypes="ccccccccccscccccc" /></g></svg>
